HIERARCHY
ROOT Hips
{
  OFFSET 2.26061 22.2878 23.7974
  CHANNELS 6 Xposition Yposition Zposition Zrotation Xrotation Yrotation
  JOINT LeftUpLeg
  {
    OFFSET 8.64259 1.95398 -2.38835
    CHANNELS 3 Zrotation Xrotation Yrotation
    JOINT LeftLeg
    {
      OFFSET 43.7702 0 0
      CHANNELS 3 Zrotation Xrotation Yrotation
      JOINT LeftFoot
      {
        OFFSET 40.6238 0 0
        CHANNELS 3 Zrotation Xrotation Yrotation
        JOINT LeftToeBase
        {
          OFFSET 12.7242 0 0
          CHANNELS 3 Zrotation Xrotation Yrotation
          End Site
          {
            OFFSET 0 0 0
          }
        }
      }
    }
  }
  JOINT RightUpLeg
  {
    OFFSET -8.2249 1.95398 -2.59336
    CHANNELS 3 Zrotation Xrotation Yrotation
    JOINT RightLeg
    {
      OFFSET 43.5653 0 0
      CHANNELS 3 Zrotation Xrotation Yrotation
      JOINT RightFoot
      {
        OFFSET 40.6238 0 0
        CHANNELS 3 Zrotation Xrotation Yrotation
        JOINT RightToeBase
        {
          OFFSET 12.7242 0 0
          CHANNELS 3 Zrotation Xrotation Yrotation
          End Site
          {
            OFFSET 0 0 0
          }
        }
      }
    }
  }
  JOINT Spine
  {
    OFFSET 0.165834 0.87714 6.61349
    CHANNELS 3 Zrotation Xrotation Yrotation
    JOINT Spine1
    {
      OFFSET 7.38963 1.71661e-005 0
      CHANNELS 3 Zrotation Xrotation Yrotation
      JOINT Spine2
      {
        OFFSET 11.9445 1.14441e-005 0
        CHANNELS 3 Zrotation Xrotation Yrotation
        JOINT Spine3
        {
          OFFSET 14.7254 4.19617e-005 0
          CHANNELS 3 Zrotation Xrotation Yrotation
          JOINT Spine4
          {
            OFFSET 10.9679 0 0
            CHANNELS 3 Zrotation Xrotation Yrotation
            JOINT RightShoulder
            {
              OFFSET 2.46616 -1.6653 3.69651
              CHANNELS 3 Zrotation Xrotation Yrotation
              JOINT RightArm
              {
                OFFSET 13.0012 0 0
                CHANNELS 3 Zrotation Xrotation Yrotation
                JOINT RightForeArm
                {
                  OFFSET 28.7848 1.52588e-005 0
                  CHANNELS 3 Zrotation Xrotation Yrotation
                  JOINT RightHand
                  {
                    OFFSET 26.5688 1.52588e-005 0
                    CHANNELS 3 Zrotation Xrotation Yrotation
                    End Site
                    {
                      OFFSET 0 0 0
                    }
                  }
                }
              }
            }
            JOINT LeftShoulder
            {
              OFFSET 2.38034 -1.29275 -3.7523
              CHANNELS 3 Zrotation Xrotation Yrotation
              JOINT LeftArm
              {
                OFFSET 16.3182 6.10351e-005 0
                CHANNELS 3 Zrotation Xrotation Yrotation
                JOINT LeftForeArm
                {
                  OFFSET 27.0901 0 0
                  CHANNELS 3 Zrotation Xrotation Yrotation
                  JOINT LeftHand
                  {
                    OFFSET 24.5451 1.52588e-005 0
                    CHANNELS 3 Zrotation Xrotation Yrotation
                    End Site
                    {
                      OFFSET 0 0 0
                    }
                  }
                }
              }
            }
            JOINT Neck
            {
              OFFSET 5.0226 -0.0266342 0
              CHANNELS 3 Zrotation Xrotation Yrotation
              JOINT Head
              {
                OFFSET 6.69363 2.86102e-005 0
                CHANNELS 3 Zrotation Xrotation Yrotation
                End Site
                {
                  OFFSET 0 0 0
                }
              }
            }
          }
        }
      }
    }
  }
}
MOTION
Frames:	6
Frame Time:	0.0416667
91.474 94.6802 29.6544 92.0781 -35.4493 91.0376 -170.932 6.08942 93.0733 -50.1287 16.5038 0.446958 50.3747 -4.85755 -2.08393 44.6481 13.8017 10.6313 175.758 19.2993 92.9168 -29.8449 -1.41694 -1.43672 66.8584 -2.87034 -1.53322 26.0428 -0.0533777 -0.949637 -0.5193 7.19267 -89.9226 12.4901 -0.994799 0.269306 0.819527 -0.981961 0.312827 -21.7187 -1.02974 -0.0421522 -1.70604 -1.02973 -0.0421489 93.4081 -52.9842 -95.0906 12.6909 -4.68829 12.2622 -11.6229 -30.838 -43.6749 3.53363 -0.389875 5.68832 -100.694 -50.9574 63.3619 -16.0943 8.13558 9.07209 5.05018 3.5462 -46.934 12.337 0.756484 2.18525 8.64084 -1.33998 -0.999338 -2.22229 -1.10449 1.51632 
82.2729 93.1924 21.9884 89.5269 -33.4146 90.039 -173.52 1.02668 92.3912 -42.8891 24.2321 2.88471 55.065 -1.82026 -0.437104 50.6415 18.8648 8.47019 176.111 26.2812 92.3488 -23.9133 -0.800732 -1.0158 61.4212 -1.18155 -0.599813 35.888 0.327746 -2.48502 -0.889695 7.24007 -89.9188 12.3975 -1.7293 0.358738 0.727602 -1.71182 0.434516 -21.8168 -1.75714 -0.177736 -1.80415 -1.75713 -0.177739 94.1128 -55.8512 -93.6294 12.2984 0.0698289 13.2259 -8.51698 -26.2591 -36.5465 -1.76383 -0.697225 8.71006 -101.501 -49.8575 61.7852 -10.5162 4.73457 0.459755 5.70891 4.13144 -46.0928 15.0573 0.972105 2.56102 8.83775 -1.22228 -3.22523 -2.07789 -0.565382 2.02376 
72.0379 93.2901 13.6291 87.8917 -31.9455 87.9488 -173.579 0.164224 89.2399 -32.1974 24.2857 1.90186 67.9821 9.60449 8.90609 46.5138 14.3849 3.4003 175.639 24.1547 90.5114 -6.80178 2.19366 -0.884391 64.0032 -2.67873 -1.50861 43.4187 0.442245 -4.83441 -0.974674 7.42379 -89.6065 12.0386 -1.7516 0.982408 0.368393 -1.70668 1.05855 -22.1758 -1.96587 0.410405 -2.16316 -1.96586 0.410401 94.5468 -57.441 -92.7951 13.8761 -0.557265 12.4476 -5.74592 -21.6994 -36.6348 -0.988014 -0.549955 6.80634 -101.896 -48.1345 60.5279 -5.91177 3.30571 -7.70512 4.82944 4.8789 -41.7783 13.8832 0.936959 2.80575 6.03604 -2.10949 -6.75037 1.32371 -0.846388 2.38579 
63.0304 95.0809 6.01149 88.6289 -35.6157 88.0954 -173.154 5.40513 87.5339 -27.3903 17.1331 -0.0258487 68.6736 9.2972 7.8135 39.6381 8.61648 2.05961 176.127 24.141 90.5343 -15.8179 2.81068 -1.32478 61.8453 -2.25086 -1.27894 39.4032 0.387546 -5.01771 -0.583198 7.63703 -89.4582 11.6029 -0.906335 1.1727 -0.0683332 -0.853846 1.21144 -22.6034 -1.21684 0.846115 -2.59073 -1.21684 0.846116 93.5709 -57.4381 -94.1784 13.5664 -4.05916 8.52619 -8.54591 -27.1012 -42.0508 6.67143 -0.117023 4.99902 -102.901 -49.4495 59.6098 -4.09954 3.47251 -4.85553 6.86093 6.18313 -44.7931 13.2746 0.958493 3.2498 5.57314 -2.05587 -4.62088 2.72391 -1.25907 0.340903 
55.7301 97.2831 0.0638213 89.1604 -39.0822 89.4744 -173.094 9.06291 88.1419 -22.8886 14.8463 -0.551938 61.5924 2.13013 2.21193 39.3219 8.48752 4.39054 176.671 23.0277 91.1353 -36.5736 3.23115 -2.16189 59.9917 -1.61966 -0.894599 38.9115 0.364682 -5.85082 -0.221731 7.55765 -89.5942 11.7588 -0.250218 0.835325 0.0876161 -0.213228 0.845524 -22.446 -0.489706 0.721515 -2.43338 -0.489704 0.721516 93.1617 -56.4513 -94.9072 12.9394 -7.10885 3.89167 -11.8194 -28.6477 -48.8178 8.90271 -0.092368 4.47518 -101.783 -49.8312 61.3704 -9.55362 6.02799 2.35077 2.778 2.55121 -42.7571 17.1731 1.19995 3.11188 4.95452 -1.48577 -1.59199 2.42601 -1.23262 -0.312862 
48.708 96.9025 -4.81587 90.1572 -40.1429 90.0201 -172.459 12.6281 88.3616 -20.7661 15.4358 -1.68751 60.5169 1.61611 4.76368 36.5867 6.16555 3.10955 175.667 17.085 89.6931 -52.061 3.33789 -2.66462 58.7655 -1.63579 -0.919518 41.0491 0.358508 -6.16954 0.0145704 7.45786 -89.6188 11.9579 0.208727 0.737088 0.286724 0.240961 0.727179 -22.2467 -0.0224395 0.765742 -2.23409 -0.0224502 0.765736 93.0274 -55.3177 -95.2771 11.3178 -9.19002 -0.208518 -13.6017 -26.3601 -55.3352 2.4388 -0.428702 2.69827 -100.978 -50.0865 62.6278 -15.0231 8.17736 9.55348 2.21677 2.86445 -39.0068 13.2616 0.768918 1.91428 5.11911 -1.87558 -0.105691 1.01063 -1.89091 -1.35474 
